<?xml version="1.0" encoding="UTF-8"?><svg id="Layer_1" xmlns="http://www.w3.org/2000/svg" width="200" height="200" viewBox="0 0 200 200"><defs><style>.cls-1{stroke:#4d4d4d;stroke-miterlimit:10;stroke-width:1.02px;}</style></defs><path class="cls-1" d="M111.38,67.86l25.45-58.72-13.76-4.47-13.93,62.47c.76.22,1.5.46,2.24.72"/><path class="cls-1" d="M120.79,73.06l42.35-47.99-11.71-8.5-32.55,55.11c.65.44,1.28.9,1.9,1.38"/><path class="cls-1" d="M128.14,80.91l55.11-32.55-8.51-11.71-47.99,42.36c.48.61.94,1.25,1.39,1.9"/><path class="cls-1" d="M132.71,90.65l62.46-13.93-4.47-13.76-58.72,25.45c.27.73.51,1.48.73,2.24"/><path class="cls-1" d="M134.03,98.97c.01.4.02.81.02,1.22,0,.38,0,.75-.02,1.13l63.72,6.06v-14.47l-63.72,6.06Z"/><path class="cls-1" d="M132.74,109.64c-.22.76-.46,1.5-.72,2.24l58.72,25.45,4.47-13.76-62.47-13.93Z"/><path class="cls-1" d="M128.19,119.39c-.44.65-.9,1.28-1.38,1.9l47.99,42.35,8.5-11.71-55.11-32.55Z"/><path class="cls-1" d="M120.86,127.25c-.62.48-1.25.94-1.9,1.39l32.55,55.11,11.71-8.5-42.36-47.99Z"/><path class="cls-1" d="M111.46,132.48c-.73.27-1.48.51-2.24.73l13.93,62.46,13.76-4.47-25.45-58.72Z"/><path class="cls-1" d="M99.69,134.55c-.38,0-.75,0-1.13-.02l-6.06,63.72h14.47l-6.06-63.72c-.4.01-.81.02-1.22.02"/><path class="cls-1" d="M88,132.51l-25.45,58.72,13.76,4.47,13.93-62.47c-.76-.22-1.5-.46-2.24-.72"/><path class="cls-1" d="M78.59,127.31l-42.35,47.99,11.71,8.5,32.55-55.11c-.65-.44-1.28-.9-1.9-1.38"/><path class="cls-1" d="M71.23,119.46l-55.11,32.55,8.51,11.71,47.99-42.36c-.48-.61-.94-1.25-1.39-1.9"/><path class="cls-1" d="M66.67,109.73l-62.46,13.92,4.47,13.76,58.72-25.45c-.27-.73-.51-1.48-.73-2.24"/><path class="cls-1" d="M65.32,100.19c0-.38,0-.75.02-1.13L1.62,93v14.47l63.72-6.06c-.01-.4-.02-.81-.02-1.22"/><path class="cls-1" d="M67.36,88.5L8.65,63.05l-4.47,13.76,62.47,13.93c.22-.76.46-1.5.72-2.24"/><path class="cls-1" d="M72.56,79.08L24.58,36.73l-8.5,11.71,55.11,32.55c.44-.65.9-1.28,1.38-1.9"/><path class="cls-1" d="M80.41,71.73L47.86,16.63l-11.71,8.51,42.36,47.99c.61-.48,1.25-.94,1.9-1.39"/><path class="cls-1" d="M90.15,67.17l-13.93-62.46-13.76,4.47,25.45,58.72c.73-.27,1.48-.51,2.24-.73"/><path class="cls-1" d="M99.69,65.82c.38,0,.75,0,1.13.02l6.06-63.72h-14.47l6.06,63.72c.4-.01.81-.02,1.22-.02"/></svg>