<?xml version="1.0" encoding="UTF-8"?><svg id="Layer_1" xmlns="http://www.w3.org/2000/svg" width="90" height="20" viewBox="0 0 90 20"><defs><style>.cls-1{fill:#fff;stroke-width:0px;}</style></defs><path class="cls-1" d="M4.85.16H0v4.06h4.79c3.1,0,5.62,2.52,5.62,5.62s-2.52,5.62-5.62,5.62H0v4.06h4.85c5.35,0,9.69-4.34,9.69-9.69S10.2.15,4.85.15h0Z"/><path class="cls-1" d="M25.75.16h4.85v4.06h-4.79c-3.1,0-5.62,2.52-5.62,5.62s2.52,5.62,5.62,5.62h4.79v4.06h-4.85c-5.35,0-9.69-4.34-9.69-9.69S20.4.15,25.75.15h0Z"/><path class="cls-1" d="M53.58,15.5c1.03,1.6,2.93,2.34,5.44,2.45,2.38.09,7.23.02,9.78-.16-.18.39-.46,1.16-.52,1.66-2.38.09-6.86.13-9.26.04-2.84-.11-4.78-.89-6.18-2.58-1.05.92-2.13,1.85-3.3,2.79l-.87-1.64c1.01-.66,2.22-1.58,3.32-2.49v-5.52h-3.04v-1.53h4.63v6.96h-.01ZM52.91,4.96c-.68-1.05-2.29-2.49-3.71-3.45l1.21-.98c1.4.92,3.04,2.31,3.8,3.36l-1.29,1.07ZM60.12,5.84c.11-.55.24-1.16.32-1.72h-5.79v-1.35h3.69c-.28-.68-.83-1.55-1.37-2.22l1.24-.48c.68.7,1.35,1.72,1.62,2.47l-.57.24h3.56c.52-.78,1.17-1.99,1.53-2.77l1.62.41c-.46.81-1.01,1.68-1.49,2.36h3.95v1.35h-6.22c-.2.59-.41,1.2-.61,1.72h5.13v10.3h-10.35V5.84h3.74ZM65.14,7.08h-7.23v1.81h7.23v-1.81ZM65.14,10.07h-7.23v1.81h7.23v-1.81ZM65.14,13.06h-7.23v1.83h7.23v-1.83Z"/><path class="cls-1" d="M53.58,15.5c1.03,1.6,2.93,2.34,5.44,2.45,2.38.09,7.23.02,9.78-.16-.18.39-.46,1.16-.52,1.66-2.38.09-6.86.13-9.26.04-2.84-.11-4.78-.89-6.18-2.58-1.05.92-2.13,1.85-3.3,2.79l-.87-1.64c1.01-.66,2.22-1.58,3.32-2.49v-5.52h-3.04v-1.53h4.63v6.96h-.01ZM52.91,4.96c-.68-1.05-2.29-2.49-3.71-3.45l1.21-.98c1.4.92,3.04,2.31,3.8,3.36l-1.29,1.07ZM60.12,5.84c.11-.55.24-1.16.32-1.72h-5.79v-1.35h3.69c-.28-.68-.83-1.55-1.37-2.22l1.24-.48c.68.7,1.35,1.72,1.62,2.47l-.57.24h3.56c.52-.78,1.17-1.99,1.53-2.77l1.62.41c-.46.81-1.01,1.68-1.49,2.36h3.95v1.35h-6.22c-.2.59-.41,1.2-.61,1.72h5.13v10.3h-10.35V5.84h3.74ZM65.14,7.08h-7.23v1.81h7.23v-1.81ZM65.14,10.07h-7.23v1.81h7.23v-1.81ZM65.14,13.06h-7.23v1.83h7.23v-1.83Z"/><path class="cls-1" d="M76.95,12.8c-2.2,1.12-4.58,2.27-6.42,3.14l-.64-1.6c.83-.35,1.86-.78,2.97-1.29v-6.84h-2.56v-1.53h2.56V.15h1.51v4.54h2.36v1.53h-2.36v6.13l2.22-1.01.35,1.44v.02ZM81.02,10.28c-.28.52-.59,1.05-.94,1.53h9.39s-.02.44-.07.66c-.32,4.5-.68,6.2-1.29,6.84-.32.37-.72.48-1.22.55-.48.02-1.29.02-2.17-.02,0-.39-.16-.98-.37-1.31.8.07,1.53.09,1.86.09.3,0,.5-.02.66-.24.37-.39.7-1.77.98-5.2h-1.7c-.87,2.6-2.58,5.42-4.46,6.84-.26-.32-.76-.7-1.16-.94,1.77-1.18,3.36-3.54,4.26-5.9h-2.12c-1.15,2.25-3.3,4.63-5.31,5.9-.25-.35-.68-.74-1.07-1.01,1.81-.98,3.73-2.95,4.92-4.89h-2.2c-.87.98-1.86,1.83-2.84,2.49-.21-.26-.78-.78-1.12-1.01,1.72-1.03,3.3-2.58,4.32-4.37h-3.06v-1.37h13.67v1.37h-8.97ZM88.44,7.69h-9.98V.64h9.98v7.05ZM86.93,1.86h-6.98v1.72h6.98v-1.72ZM86.93,4.72h-6.98v1.74h6.98v-1.74Z"/><path class="cls-1" d="M76.95,12.8c-2.2,1.12-4.58,2.27-6.42,3.14l-.64-1.6c.83-.35,1.86-.78,2.97-1.29v-6.84h-2.56v-1.53h2.56V.15h1.51v4.54h2.36v1.53h-2.36v6.13l2.22-1.01.35,1.44v.02ZM81.02,10.28c-.28.52-.59,1.05-.94,1.53h9.39s-.02.44-.07.66c-.32,4.5-.68,6.2-1.29,6.84-.32.37-.72.48-1.22.55-.48.02-1.29.02-2.17-.02,0-.39-.16-.98-.37-1.31.8.07,1.53.09,1.86.09.3,0,.5-.02.66-.24.37-.39.7-1.77.98-5.2h-1.7c-.87,2.6-2.58,5.42-4.46,6.84-.26-.32-.76-.7-1.16-.94,1.77-1.18,3.36-3.54,4.26-5.9h-2.12c-1.15,2.25-3.3,4.63-5.31,5.9-.25-.35-.68-.74-1.07-1.01,1.81-.98,3.73-2.95,4.92-4.89h-2.2c-.87.98-1.86,1.83-2.84,2.49-.21-.26-.78-.78-1.12-1.01,1.72-1.03,3.3-2.58,4.32-4.37h-3.06v-1.37h13.67v1.37h-8.97ZM88.44,7.69h-9.98V.64h9.98v7.05ZM86.93,1.86h-6.98v1.72h6.98v-1.72ZM86.93,4.72h-6.98v1.74h6.98v-1.74Z"/><path class="cls-1" d="M33.23,19.55h-.78L47.55.16h.78l-15.1,19.39Z"/></svg>