<?xml version="1.0" encoding="UTF-8"?><svg xmlns="http://www.w3.org/2000/svg" width="425" height="142" viewBox="0 0 425 142"><defs><style>.cls-1{fill:#e8e8e8;stroke-width:0px;}</style></defs><g id="Layer_1"><path class="cls-1" d="M150.05,47.7l18.4-42.47-9.95-3.23-10.07,45.17c.55.16,1.09.33,1.62.52"/><path class="cls-1" d="M156.85,51.47l30.63-34.7-8.47-6.15-23.54,39.85c.47.32.93.65,1.37,1"/><path class="cls-1" d="M162.17,57.14l39.85-23.54-6.15-8.47-34.7,30.63c.35.44.68.9,1,1.37"/><path class="cls-1" d="M165.47,64.18l45.17-10.07-3.23-9.95-42.47,18.4c.19.53.37,1.07.53,1.62"/><path class="cls-1" d="M166.43,70.2c.01.29.02.59.02.88,0,.27,0,.55-.02.82l46.08,4.38v-10.46l-46.08,4.38Z"/><path class="cls-1" d="M165.49,77.92c-.16.55-.33,1.09-.52,1.62l42.47,18.4,3.23-9.95-45.17-10.07Z"/><path class="cls-1" d="M162.21,84.97c-.32.47-.65.93-1,1.37l34.7,30.63,6.15-8.47-39.85-23.54Z"/><path class="cls-1" d="M156.91,90.66c-.45.35-.9.68-1.37,1l23.54,39.85,8.47-6.15-30.63-34.7Z"/><path class="cls-1" d="M150.11,94.44c-.53.19-1.07.37-1.62.53l10.07,45.17,9.95-3.23-18.41-42.47Z"/><path class="cls-1" d="M141.59,95.93c-.27,0-.55,0-.82-.02l-4.38,46.08h10.46l-4.38-46.08c-.29.01-.59.02-.88.02"/><path class="cls-1" d="M133.14,94.46l-18.4,42.47,9.95,3.23,10.07-45.17c-.55-.16-1.09-.33-1.62-.52"/><path class="cls-1" d="M126.33,90.7l-30.63,34.7,8.47,6.15,23.54-39.85c-.47-.32-.93-.65-1.37-1"/><path class="cls-1" d="M121.02,85.02l-39.85,23.54,6.15,8.47,34.7-30.63c-.35-.44-.68-.9-1-1.37"/><path class="cls-1" d="M117.71,77.98l-45.17,10.07,3.23,9.95,42.47-18.4c-.19-.53-.37-1.07-.53-1.62"/><path class="cls-1" d="M116.74,71.08c0-.27,0-.55.02-.82l-46.08-4.38v10.46l46.08-4.38c-.01-.29-.02-.59-.02-.88"/><path class="cls-1" d="M118.22,62.63l-42.47-18.4-3.23,9.95,45.17,10.07c.16-.55.33-1.09.52-1.62"/><path class="cls-1" d="M121.98,55.82l-34.7-30.63-6.15,8.47,39.85,23.54c.32-.47.65-.93,1-1.37"/><path class="cls-1" d="M127.65,50.5l-23.54-39.85-8.47,6.15,30.63,34.7c.44-.35.9-.68,1.37-1"/><path class="cls-1" d="M134.69,47.2L124.62,2.03l-9.95,3.23,18.4,42.47c.53-.19,1.07-.37,1.62-.53"/><path class="cls-1" d="M141.59,46.23c.27,0,.55,0,.82.02L146.79.16h-10.46l4.38,46.08c.29-.01.59-.02.88-.02"/></g><g id="Layer_4"><path class="cls-1" d="M0,.14C39.16.14,70.9,31.88,70.9,71.04S39.16,141.94,0,141.94V.14Z"/></g><g id="Layer_3"><path class="cls-1" d="M212.42,0v141.81c39.16,0,70.9-31.75,70.9-70.91V0h-70.9Z"/></g><g id="Layer_2"><path class="cls-1" d="M283.15,71.04C283.15,31.88,314.9.14,354.06.14s70.91,31.74,70.91,70.9-31.75,70.9-70.91,70.9-70.9-31.74-70.9-70.9"/></g></svg>