<?xml version="1.0" encoding="UTF-8"?><svg id="Layer_1" xmlns="http://www.w3.org/2000/svg" width="130" height="230" viewBox="0 0 130 230"><defs><style>.cls-1{fill:#f0f0f0;stroke-width:0px;}</style></defs><path id="lockup-o" class="cls-1" d="M43.6,129.6c0-23.7,19.2-42.9,42.8-42.9s42.8,19.2,42.8,42.9-19.2,42.9-42.8,42.9-42.8-19.2-42.8-42.9"/><path id="lockup-j" class="cls-1" d="M.9,86.6v85.8c23.7,0,42.8-19.2,42.8-42.9v-42.9H.9Z"/><polygon class="cls-1" points="87.1 58.3 86.2 58.3 83.6 86 89.7 86 87.1 58.3"/><polygon class="cls-1" points="86.2 28.3 87.1 28.2 89.7 .6 83.6 .6 86.2 28.3"/><polygon class="cls-1" points="91.8 57.5 90.8 57.8 97 84.9 102.7 83 91.8 57.5"/><polygon class="cls-1" points="81.5 29.1 82.5 28.8 76.3 1.7 70.6 3.6 81.5 29.1"/><polygon class="cls-1" points="95.9 55.2 95.1 55.8 109.3 79.6 114.2 76.1 95.9 55.2"/><polygon class="cls-1" points="77.4 31.4 78.2 30.8 64 7 59.1 10.5 77.4 31.4"/><polygon class="cls-1" points="99.1 51.7 98.5 52.5 119.5 70.9 123 66 99.1 51.7"/><polygon class="cls-1" points="74.2 34.8 74.8 34.1 53.9 15.7 50.3 20.6 74.2 34.8"/><polygon class="cls-1" points="101.1 47.5 100.8 48.4 126.4 59.4 128.2 53.6 101.1 47.5"/><polygon class="cls-1" points="72.2 39.1 72.5 38.2 46.9 27.2 45.1 33 72.2 39.1"/><polygon class="cls-1" points="101.7 42.8 101.7 43.8 129.4 46.3 129.4 40.3 101.7 42.8"/><polygon class="cls-1" points="71.6 43.8 71.6 42.8 43.9 40.3 43.9 46.3 71.6 43.8"/><polygon class="cls-1" points="100.8 38.2 101.1 39.1 128.2 33 126.4 27.2 100.8 38.2"/><polygon class="cls-1" points="72.5 48.4 72.2 47.5 45.1 53.6 46.9 59.4 72.5 48.4"/><polygon class="cls-1" points="98.5 34.1 99.1 34.8 123 20.6 119.5 15.7 98.5 34.1"/><polygon class="cls-1" points="74.8 52.5 74.2 51.7 50.3 66 53.9 70.9 74.8 52.5"/><polygon class="cls-1" points="95.1 30.8 95.9 31.4 114.2 10.5 109.3 7 95.1 30.8"/><polygon class="cls-1" points="78.2 55.8 77.4 55.2 59.1 76.1 64 79.6 78.2 55.8"/><polygon class="cls-1" points="90.8 28.8 91.8 29.1 102.7 3.6 97 1.7 90.8 28.8"/><polygon class="cls-1" points="82.5 57.8 81.5 57.5 70.6 83 76.3 84.9 82.5 57.8"/><path id="lockup-d" class="cls-1" d="M.9.8c23.7,0,42.8,19.2,42.8,42.9S24.5,86.6.9,86.6V.8Z"/><g id="lockup-tagline"><path class="cls-1" d="M9.4,222.7v1.8h-4.7c-.6,0-1-.2-1.3-.5-.3-.3-.5-.7-.5-1.3h6.5ZM1.5,222.1c-.3-.3-.5-.8-.5-1.5v-10.4h2v12.5c-.7,0-1.1-.2-1.5-.5"/><path class="cls-1" d="M17.7,211.1v.8c0,0,.4-.1.7-.1s.6,0,.9.1l-.2-.8c-.2-.7-.4-1.1-.7-1.1s-.5.4-.7,1.1ZM15.9,212.9c.5-.5,1-.9,1.6-1l-1.6,6.8h5l-1.7-6.8c.5.1,1.1.5,1.6,1,.5.5.9,1.2,1.1,1.9l2.9,9.7h-2.1l-1.3-4.2h-6l-1.2,4.2h-2.1l2.8-9.7c.2-.7.6-1.3,1.1-1.9"/><path class="cls-1" d="M36.1,222c.5-.4.8-1.1.8-1.8s-.3-1.4-.9-1.9c-.6-.5-1.3-.7-2.2-.7h-4.4v5.1h4.7c.8,0,1.5-.2,2-.7M27.4,210.2h6.4c.7,0,1.2.1,1.7.4.5.2.7.7.6,1.2-.5.1-1.1.2-1.7.2h-5v3.9h4.1c.7,0,1.3-.2,1.8-.6.5-.4.7-.9.7-1.4v-.5c0-.2,0-.4,0-.7,0-.3,0-.6.1-.9.7,0,1.2.1,1.5.5.3.4.4.9.4,1.4s-.2,1.1-.5,1.5c-.3.5-.8.8-1.3,1.1-.6.3-1.2.4-1.9.4h.5c.8,0,1.5.2,2.1.5.6.3,1.1.8,1.5,1.3.4.6.5,1.2.5,1.9s-.2,1.5-.6,2.1c-.4.6-1,1.1-1.7,1.4-.7.3-1.5.5-2.5.5h-6.8v-14.2h0Z"/><path class="cls-1" d="M3,192.2H1v14.2h2v-14.2Z"/><path class="cls-1" d="M17.9,204.9c-.1,0-.2,0-.3,0,0-.2,0-.6,0-1v-11.7h2v10.7c0,.6-.1,1.1-.4,1.4-.3.3-.6.5-1.1.6h-.3,0ZM15,206c-.4-.4-.7-.9-1-1.7l-3.8-8.4c-.2-.6-.5-1-.8-1.3-.3-.3-.7-.5-1.2-.5,0-.7.2-1.2.3-1.5s.4-.5.8-.5.6.2,1,.5c.3.4.7.9,1,1.7l3.8,8.5c.5,1.3,1.4,2,2.5,2.1,0,.6-.2,1-.4,1.2-.2.3-.5.4-.9.4s-.9-.2-1.2-.5ZM6.6,194.5c.3-.4.6-.5,1-.5s.4,0,.5,0v.9s0,11.5,0,11.5h-2v-10.6c0-.6.1-1,.4-1.4"/><path class="cls-1" d="M34.7,204.9c-.1,0-.2,0-.3,0,0-.2,0-.6,0-1v-11.7h2v10.7c0,.6-.1,1.1-.4,1.4-.3.3-.6.5-1.1.6h-.3,0ZM31.8,206c-.4-.4-.7-.9-1-1.7l-3.8-8.4c-.2-.6-.5-1-.8-1.3-.3-.3-.7-.5-1.2-.5,0-.7.2-1.2.3-1.5.1-.4.4-.5.8-.5s.6.2,1,.5c.3.4.7.9,1,1.7l3.8,8.5c.5,1.3,1.4,2,2.5,2.1,0,.6-.2,1-.4,1.2-.2.3-.5.4-.9.4s-.9-.2-1.2-.5ZM23.5,194.5c.3-.4.6-.5,1-.5s.4,0,.5,0v.9s0,11.5,0,11.5h-2v-10.6c0-.6.1-1,.4-1.4"/><path class="cls-1" d="M43.4,192.6c.8-.4,1.7-.6,2.8-.6s2.6.3,3.7.9c1.1.6,1.9,1.5,2.5,2.6.6,1.1.9,2.3.9,3.7s-.2,2.3-.7,3.2c-.5.9-1.1,1.5-2,1.7.3-.7.4-1.5.5-2.2,0-.8.1-1.6.1-2.5s-.2-2.1-.6-2.9c-.4-.8-1-1.5-1.8-1.9-.8-.5-1.7-.7-2.8-.7s-1.2,0-1.8.2c-.6.1-1.4.3-2.3.5.2-.9.7-1.5,1.5-1.9M42.5,205.7c-1.1-.6-1.9-1.5-2.5-2.6-.6-1.1-.9-2.4-.9-3.8s.2-2.2.7-3.1c.5-.8,1.2-1.4,2.2-1.7-.6,1.6-.8,3.1-.8,4.5s.2,2.3.6,3.2c.4.9,1,1.5,1.8,2,.8.5,1.7.7,2.7.7s1.8,0,2.6-.2c.8-.1,1.4-.3,1.7-.6-.2.8-.8,1.4-1.6,1.9-.8.5-1.8.7-3,.7s-2.6-.3-3.7-.9"/><path class="cls-1" d="M59.8,204.7h0c-.7-.2-1.3-.6-1.8-1.2-.5-.5-.8-1.2-1-2l-2.4-9.3h2.1l3.5,13.8c0,.2.2.3.3.4.1.1.3.2.5.2s.4,0,.5-.2c.1-.1.2-.3.3-.4l3.5-13.8h2l-2.4,9.3c-.2.8-.5,1.5-1,2-.5.6-1.1,1-1.8,1.2h0c-.4.1-.8.2-1.2.2s-.8,0-1.1-.2"/><path class="cls-1" d="M72.9,193.1v.8c0,0,.4-.1.7-.1s.6,0,.9.1l-.2-.8c-.2-.7-.4-1.1-.7-1.1s-.5.4-.7,1.1ZM71.1,194.9c.5-.5,1-.9,1.6-1l-1.6,6.8h5l-1.7-6.8c.5.1,1.1.5,1.6,1,.5.5.9,1.2,1.1,1.9l2.9,9.7h-2.1l-1.3-4.2h-6l-1.2,4.2h-2.1l2.8-9.7c.2-.7.6-1.3,1.1-1.9"/><path class="cls-1" d="M86.9,192.7c.3-.3.8-.5,1.4-.5h2.9v1.8h-4.9c0-.6.2-1,.5-1.3ZM84.3,194h-4.9v-1.8h5c.6,0,1.1.2,1.4.5.3.3.5.7.5,1.3v12.4h-2v-12.4h0Z"/><path class="cls-1" d="M96,192.2h-2v14.2h2v-14.2Z"/><path class="cls-1" d="M103.3,192.6c.8-.4,1.7-.6,2.8-.6s2.6.3,3.7.9c1.1.6,1.9,1.5,2.5,2.6.6,1.1.9,2.3.9,3.7s-.2,2.3-.7,3.2c-.5.9-1.1,1.5-2,1.7.3-.7.4-1.5.5-2.2,0-.8.1-1.6.1-2.5s-.2-2.1-.6-2.9c-.4-.8-1-1.5-1.8-1.9-.8-.5-1.7-.7-2.8-.7s-1.2,0-1.8.2c-.6.1-1.4.3-2.3.5.2-.9.7-1.5,1.5-1.9ZM102.3,205.7c-1.1-.6-1.9-1.5-2.5-2.6-.6-1.1-.9-2.4-.9-3.8s.2-2.2.7-3.1c.5-.8,1.2-1.4,2.2-1.7-.6,1.6-.8,3.1-.8,4.5s.2,2.3.6,3.2c.4.9,1,1.5,1.8,2,.8.5,1.7.7,2.7.7s1.8,0,2.6-.2,1.4-.3,1.7-.6c-.2.8-.8,1.4-1.6,1.9-.8.5-1.8.7-3,.7s-2.6-.3-3.7-.9"/><path class="cls-1" d="M127.5,204.9c-.1,0-.2,0-.3,0,0-.2,0-.6,0-1v-11.7h2v10.7c0,.6-.1,1.1-.4,1.4-.3.3-.6.5-1.1.6h-.3,0ZM124.7,206c-.4-.4-.7-.9-1-1.7l-3.8-8.4c-.2-.6-.5-1-.8-1.3-.3-.3-.7-.5-1.2-.5,0-.7.2-1.2.3-1.5.1-.4.4-.5.8-.5s.6.2,1,.5c.3.4.7.9,1,1.7l3.8,8.5c.5,1.3,1.4,2,2.5,2.1,0,.6-.2,1-.4,1.2-.2.3-.5.4-.9.4s-.9-.2-1.2-.5M116.3,194.5c.3-.4.6-.5,1-.5s.4,0,.5,0v.9s0,11.5,0,11.5h-2v-10.6c0-.6.1-1,.4-1.4"/><path class="cls-1" d="M4.6,187.9c-.8-.5-1.4-1.1-1.6-1.9.7.3,1.5.5,2.3.6.8.2,1.6.2,2.3.2,1,0,1.9-.2,2.7-.7.8-.5,1.3-1.1,1.6-1.8h2.1c-.2.8-.6,1.6-1.2,2.2s-1.4,1.2-2.3,1.6c-.9.4-1.9.6-2.9.6s-2.2-.2-3-.7M4.5,174.7c.8-.4,1.8-.7,2.9-.7s2.1.2,3,.6c.9.4,1.7.9,2.3,1.6.6.7,1,1.4,1.2,2.3h-2.1c-.3-.8-.9-1.4-1.7-1.9-.8-.5-1.7-.7-2.8-.7-1.5,0-3,.3-4.5.9.3-.9.8-1.6,1.6-2M.8,178.3c.4-.8,1.1-1.3,2.1-1.6-.3.8-.5,1.5-.6,2.2-.1.7-.2,1.5-.2,2.2s0,1.7.2,2.6c.1.9.3,1.6.6,2.3-.9-.3-1.6-.9-2.1-1.7-.5-.9-.8-1.9-.8-3.1s.2-2,.7-2.8"/><path class="cls-1" d="M23.1,182.7h-3.4v5.8h-2v-14.2h5.9c.9,0,1.6.2,2.1.5.5.3.8.8.8,1.3-.5,0-1.4,0-2.6,0h-4.2v5h3.7c.9,0,1.7-.2,2.2-.7.5-.5.8-1.1.8-1.9s0-.5,0-.7v-.7c0-.4,0-.7.1-.9.6,0,1.1.3,1.5.7.4.4.5,1,.5,1.7s-.3,1.8-1,2.5c-.7.8-1.5,1.2-2.5,1.5l4,6h-2.3l-3.7-5.8h0Z"/><path class="cls-1" d="M42.8,186.7v1.8h-6.6c-.6,0-1-.2-1.3-.5-.3-.3-.5-.7-.5-1.3h8.4ZM34.9,181.5c-.3-.3-.5-.7-.5-1.3h7.7v1.7h-5.6c-.7,0-1.3-.1-1.6-.4ZM33,186.2c-.3-.3-.5-.8-.5-1.5v-10.4h10.3v1.8h-8.3v10.7c-.7,0-1.1-.2-1.5-.5"/><path class="cls-1" d="M51.2,175.1v.8c0,0,.4-.1.7-.1s.6,0,.9.1l-.2-.8c-.2-.7-.4-1.1-.7-1.1s-.5.4-.7,1.1M49.5,176.9c.5-.5,1-.9,1.6-1l-1.6,6.8h5l-1.7-6.8c.5.1,1.1.5,1.6,1,.5.5.9,1.2,1.1,1.9l2.9,9.7h-2.1l-1.3-4.2h-6l-1.2,4.2h-2.1l2.8-9.7c.2-.7.6-1.3,1.1-1.9"/><path class="cls-1" d="M65.1,174.7c.3-.3.8-.5,1.4-.5h2.9v1.8h-4.9c0-.6.2-1,.5-1.3M62.6,176h-4.9v-1.8h5c.6,0,1.1.2,1.4.5.3.3.5.7.5,1.3v12.4h-2v-12.4h0Z"/><path class="cls-1" d="M74.4,174.2h-2v14.2h2v-14.2Z"/><path class="cls-1" d="M82.6,186.7h0c-.7-.2-1.3-.6-1.8-1.2-.5-.5-.8-1.2-1-2l-2.4-9.3h2.1l3.5,13.8c0,.2.2.3.3.4.1.1.3.2.5.2s.4,0,.5-.2c.1-.1.2-.3.3-.4l3.5-13.8h2l-2.4,9.3c-.2.8-.5,1.5-1,2-.5.6-1.1,1-1.8,1.2h0c-.4.1-.8.2-1.2.2s-.8,0-1.1-.2"/><path class="cls-1" d="M103.1,186.7v1.8h-6.6c-.6,0-1-.2-1.3-.5-.3-.3-.5-.7-.5-1.3h8.4,0ZM95.2,181.5c-.3-.3-.5-.7-.5-1.3h7.7v1.7h-5.6c-.7,0-1.3-.1-1.6-.4ZM93.2,186.2c-.3-.3-.5-.8-.5-1.5v-10.4h10.3v1.8h-8.3v10.7c-.7,0-1.1-.2-1.5-.5"/></g></svg>