<?xml version="1.0" encoding="UTF-8"?>
<svg id="Layer_1" data-name="Layer 1" xmlns="http://www.w3.org/2000/svg" width="120" height="230" viewBox="0 0 120 230">
  <defs>
    <style>
      .cls-1 {
        fill: #111;
        stroke-width: 0px;
      }
    </style>
  </defs>
  <path id="lockup-o" class="cls-1" d="M37.5,111.1c0-20.3,16.4-36.7,36.7-36.7s36.7,16.4,36.7,36.7-16.4,36.7-36.7,36.7-36.7-16.4-36.7-36.7"/>
  <path id="lockup-j" class="cls-1" d="M.9,74.3v73.5c20.3,0,36.7-16.4,36.7-36.7v-36.7H.9Z"/>
  <polygon class="cls-1" points="74.7 50 74 50 71.7 73.7 77 73.7 74.7 50"/>
  <polygon class="cls-1" points="74 24.3 74.7 24.2 77 .6 71.7 .6 74 24.3"/>
  <polygon class="cls-1" points="78.8 49.3 77.9 49.6 83.2 72.8 88.1 71.2 78.8 49.3"/>
  <polygon class="cls-1" points="69.9 25 70.8 24.8 65.5 1.5 60.6 3.2 69.9 25"/>
  <polygon class="cls-1" points="82.3 47.4 81.6 47.9 93.7 68.3 97.9 65.3 82.3 47.4"/>
  <polygon class="cls-1" points="66.4 27 67.1 26.5 54.9 6.1 50.7 9.1 66.4 27"/>
  <polygon class="cls-1" points="85 44.4 84.5 45.1 102.5 60.8 105.5 56.6 85 44.4"/>
  <polygon class="cls-1" points="63.7 29.9 64.2 29.3 46.3 13.5 43.2 17.7 63.7 29.9"/>
  <polygon class="cls-1" points="86.7 40.8 86.5 41.5 108.4 51 109.9 46 86.7 40.8"/>
  <polygon class="cls-1" points="62 33.6 62.2 32.8 40.3 23.4 38.8 28.4 62 33.6"/>
  <polygon class="cls-1" points="87.2 36.7 87.2 37.6 111 39.7 111 34.6 87.2 36.7"/>
  <polygon class="cls-1" points="61.5 37.6 61.5 36.7 37.7 34.6 37.7 39.7 61.5 37.6"/>
  <polygon class="cls-1" points="86.5 32.8 86.7 33.6 109.9 28.4 108.4 23.4 86.5 32.8"/>
  <polygon class="cls-1" points="62.2 41.5 62 40.8 38.8 46 40.3 51 62.2 41.5"/>
  <polygon class="cls-1" points="84.5 29.3 85 29.9 105.5 17.7 102.5 13.5 84.5 29.3"/>
  <polygon class="cls-1" points="64.2 45.1 63.7 44.4 43.2 56.6 46.3 60.8 64.2 45.1"/>
  <polygon class="cls-1" points="81.6 26.5 82.3 27 97.9 9.1 93.7 6.1 81.6 26.5"/>
  <polygon class="cls-1" points="67.1 47.9 66.4 47.4 50.7 65.3 54.9 68.3 67.1 47.9"/>
  <polygon class="cls-1" points="77.9 24.8 78.8 25 88.1 3.2 83.2 1.5 77.9 24.8"/>
  <polygon class="cls-1" points="70.8 49.6 69.9 49.3 60.6 71.2 65.5 72.8 70.8 49.6"/>
  <path id="lockup-d" class="cls-1" d="M.9.8c20.3,0,36.7,16.4,36.7,36.7S21.1,74.3.9,74.3V.8Z"/>
  <g id="lockup-tagline">
    <path class="cls-1" d="M49.5,177v.8s.4,0,.7,0,.6,0,.9,0l-.2-.8c-.2-.7-.4-1.1-.7-1.1s-.5.4-.7,1.1"/>
    <path class="cls-1" d="M62.9,176.6c.3-.3.8-.5,1.4-.5h2.8v1.7h-4.7c0-.6.2-1,.5-1.3"/>
  </g>
  <g>
    <path class="cls-1" d="M.8,170.2c0-5.4,3.7-9.3,8.9-9.3s7.8,2.9,8.2,6.8l-2.5.2c-.3-2.8-2.7-4.8-5.7-4.8s-6.4,3-6.4,7.1,2.7,7.1,6.4,7.1,5.5-2.1,5.8-5l2.4.2c-.4,4.1-3.8,7-8.2,7s-8.9-3.9-8.9-9.3Z"/>
    <path class="cls-1" d="M20.6,166.4h2.4v3.7c.5-3.1,2.6-4.2,4.8-3.8v2.3c-2.6-.4-4.8,1.2-4.8,4.8v5.4h-2.4v-12.5Z"/>
    <path class="cls-1" d="M28.9,172.7c0-3.9,2.6-6.7,6.3-6.7s6.4,3.9,6,7.4h-9.8c0,2.4,1.7,4.2,3.9,4.2s3.2-1,3.7-2.5l2,.3c-.6,2.3-2.8,4-5.7,4s-6.3-2.8-6.3-6.7ZM38.8,171.6c0-2.1-1.5-3.8-3.7-3.8s-3.6,1.6-3.8,3.8h7.5Z"/>
    <path class="cls-1" d="M43.2,175.8c0-2.3,2-3.6,5.8-4l2.6-.3v-.5c0-1.8-1-3-2.8-3s-2.7,1-2.9,2.8h-2.3c.2-2.8,2.3-4.7,5.3-4.7s5,2,5,5v4.3c0,1.4.2,2.7.3,3.6h-2.3c-.2-.6-.3-1.3-.3-2.6-.6,1.7-2.3,2.9-4.4,2.9s-4.1-1.3-4.1-3.5ZM47.9,177.6c2,0,3.6-1.5,3.6-3.7v-1l-2.4.3c-2.3.3-3.6.9-3.6,2.4s1.1,2,2.4,2Z"/>
    <path class="cls-1" d="M58.1,175.1v-6.7h-2.4v-2h2.4v-3.1h2.4v3.1h3.2v2h-3.2v6.5c0,2.2,1.5,2.4,2.9,1.9v2c-2.4.8-5.2.1-5.2-3.7Z"/>
    <path class="cls-1" d="M67.3,160.9c1,0,1.7.8,1.7,1.7s-.7,1.7-1.7,1.7-1.7-.7-1.7-1.7.7-1.7,1.7-1.7ZM66.1,166.4h2.4v12.5h-2.4v-12.5Z"/>
    <path class="cls-1" d="M70.6,166.4h2.5l3.8,10,3.8-10h2.4l-5,12.5h-2.5l-5-12.5Z"/>
    <path class="cls-1" d="M83.8,172.7c0-3.9,2.6-6.7,6.3-6.7s6.4,3.9,6,7.4h-9.8c0,2.4,1.7,4.2,3.9,4.2s3.2-1,3.7-2.5l2,.3c-.6,2.3-2.8,4-5.7,4s-6.3-2.8-6.3-6.7ZM93.8,171.6c0-2.1-1.5-3.8-3.7-3.8s-3.6,1.6-3.8,3.8h7.5Z"/>
    <path class="cls-1" d="M1.2,186.5h2.5v17.6H1.2v-17.6Z"/>
    <path class="cls-1" d="M7,191.6h2.4v3.1c.5-2.1,1.9-3.4,4.1-3.4s4.5,2,4.5,5.1v7.7h-2.4v-7.4c0-2.3-1.1-3.6-2.9-3.6s-3.3,1.6-3.3,4.4v6.5h-2.4v-12.5Z"/>
    <path class="cls-1" d="M20.9,191.6h2.4v3.1c.5-2.1,1.9-3.4,4.1-3.4s4.5,2,4.5,5.1v7.7h-2.4v-7.4c0-2.3-1.1-3.6-2.9-3.6s-3.3,1.6-3.3,4.4v6.5h-2.4v-12.5Z"/>
    <path class="cls-1" d="M34.3,197.8c0-3.9,2.7-6.6,6.4-6.6s6.4,2.7,6.4,6.6-2.6,6.7-6.4,6.7-6.4-2.8-6.4-6.7ZM40.6,202.4c2.3,0,3.9-1.9,3.9-4.6s-1.6-4.6-3.9-4.6-4,1.9-4,4.6,1.6,4.6,4,4.6Z"/>
    <path class="cls-1" d="M47.8,191.6h2.5l3.8,10,3.8-10h2.4l-5,12.5h-2.5l-5-12.5Z"/>
    <path class="cls-1" d="M61.2,200.9c0-2.3,2-3.6,5.8-4l2.6-.3v-.5c0-1.8-1-3-2.8-3s-2.7,1-2.9,2.8h-2.3c.2-2.8,2.3-4.7,5.3-4.7s5,2,5,5v4.3c0,1.4.1,2.7.3,3.6h-2.3c-.1-.6-.3-1.3-.3-2.6-.6,1.7-2.3,2.9-4.4,2.9s-4.1-1.3-4.1-3.5ZM66,202.7c2,0,3.6-1.5,3.6-3.7v-1l-2.4.3c-2.3.3-3.6.9-3.6,2.4s1.1,2,2.4,2Z"/>
    <path class="cls-1" d="M76.1,200.2v-6.7h-2.4v-2h2.4v-3.1h2.4v3.1h3.2v2h-3.2v6.5c0,2.2,1.5,2.4,2.9,1.9v2c-2.4.8-5.2.1-5.2-3.7Z"/>
    <path class="cls-1" d="M85.4,186c1,0,1.7.8,1.7,1.7s-.7,1.7-1.7,1.7-1.7-.7-1.7-1.7.7-1.7,1.7-1.7ZM84.2,191.6h2.4v12.5h-2.4v-12.5Z"/>
    <path class="cls-1" d="M89.1,197.8c0-3.9,2.7-6.6,6.4-6.6s6.4,2.7,6.4,6.6-2.6,6.7-6.4,6.7-6.4-2.8-6.4-6.7ZM95.5,202.4c2.3,0,3.9-1.9,3.9-4.6s-1.6-4.6-3.9-4.6-4,1.9-4,4.6,1.6,4.6,4,4.6Z"/>
    <path class="cls-1" d="M104.3,191.6h2.4v3.1c.5-2.1,1.9-3.4,4.1-3.4s4.5,2,4.5,5.1v7.7h-2.4v-7.4c0-2.3-1.1-3.6-2.9-3.6s-3.3,1.6-3.3,4.4v6.5h-2.4v-12.5Z"/>
    <path class="cls-1" d="M1.1,211.6h2.5v15.5h8.6v2.1H1.1v-17.6Z"/>
    <path class="cls-1" d="M14.1,226c0-2.3,2-3.6,5.8-4l2.6-.3v-.5c0-1.8-1-3-2.8-3s-2.7,1-2.9,2.8h-2.3c.2-2.8,2.3-4.7,5.3-4.7s5,2,5,5v4.3c0,1.4.2,2.7.3,3.6h-2.3c-.2-.6-.3-1.3-.3-2.6-.6,1.7-2.3,2.9-4.4,2.9s-4.1-1.3-4.1-3.5ZM18.9,227.8c2,0,3.6-1.5,3.6-3.7v-1l-2.4.3c-2.3.3-3.6.9-3.6,2.4s1.1,2,2.4,2Z"/>
    <path class="cls-1" d="M27.7,211.6h2.4v7.2c.9-1.6,2.5-2.4,4.4-2.4,3.4,0,5.8,2.7,5.8,6.6s-2.4,6.6-5.8,6.6-3.5-.9-4.4-2.4v2.1h-2.4v-17.6ZM33.9,227.6c2.3,0,4-1.9,4-4.6s-1.7-4.6-4-4.6-4,1.9-4,4.6,1.6,4.6,4,4.6Z"/>
  </g>
</svg>